<svg width="48" height="49" viewBox="0 0 48 49" fill="none" xmlns="http://www.w3.org/2000/svg">
<path d="M24 8.5C15.168 8.5 8 15.668 8 24.5C8 33.332 15.168 40.5 24 40.5C32.832 40.5 40 33.332 40 24.5C40 15.668 32.832 8.5 24 8.5ZM16.112 34.548C16.8 33.108 20.992 31.7 24 31.7C27.008 31.7 31.216 33.108 31.888 34.548C29.712 36.276 26.976 37.3 24 37.3C21.024 37.3 18.288 36.276 16.112 34.548ZM34.176 32.228C31.888 29.444 26.336 28.5 24 28.5C21.664 28.5 16.112 29.444 13.824 32.228C12.192 30.084 11.2 27.412 11.2 24.5C11.2 17.444 16.944 11.7 24 11.7C31.056 11.7 36.8 17.444 36.8 24.5C36.8 27.412 35.808 30.084 34.176 32.228ZM24 14.9C20.896 14.9 18.4 17.396 18.4 20.5C18.4 23.604 20.896 26.1 24 26.1C27.104 26.1 29.6 23.604 29.6 20.5C29.6 17.396 27.104 14.9 24 14.9ZM24 22.9C22.672 22.9 21.6 21.828 21.6 20.5C21.6 19.172 22.672 18.1 24 18.1C25.328 18.1 26.4 19.172 26.4 20.5C26.4 21.828 25.328 22.9 24 22.9Z" fill="#002F52"/>
</svg>
