<svg width="38" height="39" viewBox="0 0 38 39" fill="none" xmlns="http://www.w3.org/2000/svg">
<g clip-path="url(#clip0_95903_141)">
<path d="M28.5002 9.99935H25.3335C25.3335 6.50018 22.4993 3.66602 19.0002 3.66602C15.501 3.66602 12.6668 6.50018 12.6668 9.99935H9.50016C7.7585 9.99935 6.3335 11.4243 6.3335 13.166V32.166C6.3335 33.9077 7.7585 35.3327 9.50016 35.3327H28.5002C30.2418 35.3327 31.6668 33.9077 31.6668 32.166V13.166C31.6668 11.4243 30.2418 9.99935 28.5002 9.99935ZM19.0002 6.83268C20.7418 6.83268 22.1668 8.25768 22.1668 9.99935H15.8335C15.8335 8.25768 17.2585 6.83268 19.0002 6.83268ZM28.5002 32.166H9.50016V13.166H12.6668V16.3327C12.6668 17.2035 13.3793 17.916 14.2502 17.916C15.121 17.916 15.8335 17.2035 15.8335 16.3327V13.166H22.1668V16.3327C22.1668 17.2035 22.8793 17.916 23.7502 17.916C24.621 17.916 25.3335 17.2035 25.3335 16.3327V13.166H28.5002V32.166Z" fill="#002F52"/>
</g>
<defs>
<clipPath id="clip0_95903_141">
<rect width="38" height="38" fill="white" transform="translate(0 0.5)"/>
</clipPath>
</defs>
</svg>
