<svg width="51" height="49" viewBox="0 0 51 49" fill="none" xmlns="http://www.w3.org/2000/svg">
<path d="M33.4087 8.5C30.3743 8.5 27.4621 9.91253 25.5613 12.1447C23.6604 9.91253 20.7482 8.5 17.7138 8.5C12.3427 8.5 8.12256 12.7202 8.12256 18.0913C8.12256 24.6831 14.0517 30.0542 23.0326 38.2155L25.5613 40.5L28.0899 38.1981C37.0708 30.0542 42.9999 24.6831 42.9999 18.0913C42.9999 12.7202 38.7798 8.5 33.4087 8.5ZM25.7356 35.6172L25.5613 35.7916L25.3869 35.6172C17.086 28.1011 11.6103 23.1311 11.6103 18.0913C11.6103 14.6035 14.2261 11.9877 17.7138 11.9877C20.3994 11.9877 23.0152 13.7142 23.9395 16.1033H27.2005C28.1073 13.7142 30.7231 11.9877 33.4087 11.9877C36.8964 11.9877 39.5122 14.6035 39.5122 18.0913C39.5122 23.1311 34.0365 28.1011 25.7356 35.6172Z" fill="url(#paint0_linear_95903_138)"/>
<defs>
<linearGradient id="paint0_linear_95903_138" x1="22.6952" y1="4.65999" x2="72.9448" y2="11.9119" gradientUnits="userSpaceOnUse">
<stop stop-color="#002F52"/>
<stop offset="1" stop-color="#326589"/>
</linearGradient>
</defs>
</svg>
